<?xml version="1.0" encoding="UTF-8" standalone="no"?>
<svg
   xmlns:dc="http://purl.org/dc/elements/1.1/"
   xmlns:cc="http://creativecommons.org/ns#"
   xmlns:rdf="http://www.w3.org/1999/02/22-rdf-syntax-ns#"
   xmlns:svg="http://www.w3.org/2000/svg"
   xmlns="http://www.w3.org/2000/svg"
   xmlns:sodipodi="http://sodipodi.sourceforge.net/DTD/sodipodi-0.dtd"
   xmlns:inkscape="http://www.inkscape.org/namespaces/inkscape"
   xml:space="preserve"
   width="22.83975"
   height="5.4794998"
   version="1.1"
   style="clip-rule:evenodd;fill-rule:evenodd;image-rendering:optimizeQuality;shape-rendering:geometricPrecision;text-rendering:geometricPrecision"
   viewBox="0 0 604.13605 145.56559"
   id="svg15"
   sodipodi:docname="commerce.svg"
   inkscape:version="1.0.1 (3bc2e813f5, 2020-09-07)"><metadata
   id="metadata19"><rdf:RDF><cc:Work
       rdf:about=""><dc:format>image/svg+xml</dc:format><dc:type
         rdf:resource="http://purl.org/dc/dcmitype/StillImage" /><dc:title></dc:title></cc:Work></rdf:RDF></metadata><sodipodi:namedview
   pagecolor="#ffffff"
   bordercolor="#666666"
   borderopacity="1"
   objecttolerance="10"
   gridtolerance="10"
   guidetolerance="10"
   inkscape:pageopacity="0"
   inkscape:pageshadow="2"
   inkscape:window-width="1366"
   inkscape:window-height="745"
   id="namedview17"
   showgrid="false"
   inkscape:zoom="28.376315"
   inkscape:cx="11.768823"
   inkscape:cy="1.1825283"
   inkscape:window-x="-8"
   inkscape:window-y="-8"
   inkscape:window-maximized="1"
   inkscape:current-layer="svg15"
   units="px" />
 <defs
   id="defs4">
  <style
   type="text/css"
   id="style2">
   <![CDATA[
    .fil0 {fill:black}
   ]]>
  </style>
 
  
  
 </defs>
 <g
   id="_868590944"
   transform="matrix(1.0611994,0,0,1.5635189,-204.60445,-20.43234)">
   <path
   class="fil0"
   d="m 205,38 c 0,0 0,0 1,0 0,1 0,1 0,1 v 41 c 0,0 0,1 0,1 -1,0 -1,0 -1,0 h -2 c -1,0 -1,0 -1,0 -1,-1 -1,-1 -1,-2 0,0 0,-1 0,-1 -1,-1 -1,-2 -1,-4 0,-1 -1,-2 -1,-4 0,-1 -1,-3 -1,-4 0,-2 -1,-3 -1,-5 0,-1 0,-2 -1,-4 l 1,22 c 0,0 0,1 -1,1 0,1 -1,1 -1,1 h -2 c -1,0 -1,0 -1,0 0,0 0,-1 0,-1 V 39 c 0,0 0,0 0,-1 0,0 0,0 1,0 h 2 c 0,0 1,0 1,1 0,0 1,0 1,1 0,0 0,1 0,2 0,1 0,2 1,4 0,1 0,2 1,4 0,2 0,3 1,5 0,1 0,3 0,4 1,2 1,3 1,4 V 40 c 0,0 0,-1 0,-1 1,-1 1,-1 2,-1 z m 19,6 c 0,-2 0,-4 2,-5 1,-1 3,-1 5,-1 1,0 2,0 3,0 1,0 1,1 2,1 1,1 1,2 1,2 1,1 1,2 1,3 v 31 c 0,2 -1,4 -2,5 -1,1 -3,2 -5,2 -1,0 -2,-1 -3,-1 -1,0 -2,-1 -2,-1 -1,-1 -1,-1 -2,-2 0,-1 0,-2 0,-3 z m 9,0 c 0,-1 0,-1 -1,-2 0,0 0,0 -1,0 -1,0 -1,0 -2,0 0,1 0,1 0,2 v 31 c 0,1 0,2 0,2 1,0 1,1 2,1 1,0 1,-1 1,-1 1,0 1,-1 1,-2 z m 36,-6 c 0,0 1,0 1,0 0,1 0,1 0,1 v 41 c 0,0 0,1 0,1 0,0 -1,0 -1,0 h -2 c -1,0 -1,0 -1,0 -1,-1 -1,-1 -1,-2 0,0 0,-1 0,-1 0,-1 -1,-2 -1,-4 0,-1 -1,-2 -1,-4 0,-1 -1,-3 -1,-4 0,-2 -1,-3 -1,-5 0,-1 0,-2 -1,-4 l 1,22 c 0,0 0,1 -1,1 0,1 -1,1 -1,1 h -2 c -1,0 -1,0 -1,0 0,0 0,-1 0,-1 V 39 c 0,0 0,0 0,-1 0,0 0,0 1,0 h 2 c 0,0 1,0 1,1 1,0 1,0 1,1 0,0 0,1 0,2 0,1 0,2 1,4 0,1 0,2 1,4 0,2 0,3 1,5 0,1 0,3 1,4 0,2 0,3 0,4 V 40 c 0,0 0,-1 1,-1 0,-1 0,-1 1,-1 z m 27,0 c 0,0 0,0 0,0 0,1 1,1 1,1 l 4,41 c 0,0 -1,1 -1,1 0,0 0,0 0,0 h -2 c -1,0 -1,0 -2,-1 0,0 0,0 0,-1 l -1,-6 h -3 v 6 c 0,1 0,1 -1,1 0,1 -1,1 -1,1 h -2 c 0,0 -1,0 -1,0 0,0 0,-1 0,-1 l 4,-41 c 0,0 0,0 0,-1 0,0 1,0 1,0 z m -3,31 h 2 l -1,-20 z"
   id="path7" />
   <path
   class="fil0"
   d="m 367,93 c 0,2 0,4 -1,6 0,1 -1,3 -3,4 -1,1 -3,2 -5,3 -1,0 -3,1 -6,1 -4,0 -8,-2 -11,-4 -2,-2 -3,-6 -3,-10 V 65 c 0,-1 0,-1 0,-1 0,-1 1,-1 1,-1 h 5 c 1,0 2,1 3,2 1,0 1,2 1,3 v 25 c 0,2 0,3 1,4 1,0 2,1 3,1 2,0 3,-1 4,-1 1,-1 1,-2 1,-4 V 18 c 0,-1 0,-2 1,-3 1,-1 2,-1 3,-1 h 5 c 0,0 1,0 1,0 0,1 0,1 0,2 z m 23,-67 c 0,-4 1,-7 3,-10 3,-2 7,-3 11,-3 3,0 5,0 7,1 1,0 3,1 4,2 2,1 3,3 3,4 1,2 1,4 1,6 v 67 c 0,4 -1,8 -4,10 -2,2 -6,4 -11,4 -2,0 -4,-1 -6,-1 -2,-1 -3,-2 -4,-3 -2,-1 -3,-3 -3,-4 -1,-2 -1,-4 -1,-6 z m 19,0 c 0,-1 0,-3 -1,-3 -1,-1 -2,-2 -4,-2 -1,0 -2,1 -3,2 -1,0 -1,2 -1,3 v 67 c 0,2 0,3 1,4 1,0 2,1 3,1 2,0 3,-1 4,-1 1,-1 1,-2 1,-4 z m 56,20 c -1,0 -2,0 -3,-1 -1,-1 -1,-2 -1,-4 V 26 c 0,-1 0,-3 -1,-3 -1,-1 -2,-2 -4,-2 -1,0 -2,1 -3,2 -1,0 -1,2 -1,3 0,4 0,8 1,11 0,3 1,6 2,8 1,2 2,4 3,6 1,2 2,4 4,6 1,2 2,4 3,6 1,2 2,4 3,7 1,3 2,6 3,10 0,4 0,8 0,13 0,2 0,4 -1,6 0,1 -1,3 -3,4 -1,1 -3,2 -4,3 -2,0 -4,1 -7,1 -4,0 -8,-2 -10,-4 -3,-2 -4,-6 -4,-10 V 74 c 0,0 0,-1 0,-1 0,0 1,-1 1,-1 h 4 c 2,0 3,1 4,2 1,1 1,2 1,3 v 16 c 0,2 0,3 1,4 1,0 2,1 3,1 2,0 3,-1 4,-1 1,-1 1,-2 1,-4 0,-5 0,-9 -1,-12 0,-4 -1,-7 -2,-10 -1,-2 -2,-4 -3,-6 -1,-2 -3,-4 -4,-6 -1,-1 -2,-3 -3,-5 -1,-2 -2,-4 -3,-7 -1,-2 -2,-5 -3,-9 0,-3 0,-7 0,-12 0,-2 0,-4 1,-6 0,-1 1,-3 3,-4 1,-1 3,-2 4,-2 2,-1 4,-1 6,-1 5,0 9,1 11,3 3,3 4,6 4,10 v 18 c 0,1 0,1 0,2 0,0 -1,0 -1,0 z m 51,-32 c 0,0 1,0 1,0 0,1 0,1 0,1 v 3 c 0,1 0,3 -1,3 0,1 -1,2 -2,2 h -10 v 33 h 10 c 1,0 1,0 1,0 1,0 1,1 1,1 v 3 c 0,1 0,2 -1,3 -1,1 -2,1 -3,1 h -8 v 33 h 10 c 1,0 2,0 2,1 1,1 1,2 1,3 v 3 c 0,0 0,1 0,1 0,0 -1,0 -1,0 h -21 c 0,0 -1,0 -1,0 0,0 0,-1 0,-1 V 16 c 0,-1 0,-1 0,-2 0,0 1,0 1,0 z m 44,0 c 0,0 1,0 1,0 0,1 0,1 0,1 v 3 c 0,1 0,3 -1,3 0,1 -1,2 -2,2 h -10 v 33 h 10 c 1,0 1,0 1,0 1,0 1,1 1,1 v 3 c 0,1 0,2 -1,3 -1,1 -2,1 -3,1 h -8 v 37 c 0,1 0,2 -1,3 -1,1 -2,1 -4,1 h -4 c 0,0 -1,0 -1,0 0,0 0,-1 0,-1 V 16 c 0,-1 0,-1 0,-2 0,0 1,0 1,0 z m 38,0 c 1,0 1,0 1,0 1,1 1,1 1,1 l 8,88 c 1,1 0,1 0,2 0,0 -1,0 -2,0 h -3 c -2,0 -3,0 -4,-1 0,-1 -1,-1 -1,-3 l -1,-12 h -6 l -1,12 c 0,2 -1,2 -1,3 -1,1 -2,1 -4,1 h -3 c -1,0 -2,0 -2,0 0,-1 0,-1 0,-2 l 8,-88 c 0,0 0,0 1,-1 0,0 0,0 1,0 z m -7,66 h 6 l -3,-44 z"
   id="path9" />
   <path
   class="fil0"
   d="m 689,60 c 0,0 0,0 0,0 l 6,18 c -3,0 -7,0 -10,1 L 654,50 Z m 16,18 c -3,0 -6,0 -8,0 l -7,-18 15,-39 z m 16,-18 -7,18 c -3,0 -6,0 -8,0 V 21 Z m 4,19 c -3,-1 -6,-1 -10,-1 l 7,-17 34,-11 z m 20,3 c -1,-1 -4,-2 -12,-3 -2,0 -4,0 -6,0 l 30,-28 z m -68,4 c -11,-1 -11,-3 -11,-3 0,0 0,-1 11,-3 8,-1 18,-1 28,-1 11,0 21,0 28,1 11,2 11,3 11,3 0,0 0,2 -11,3 -7,1 -17,1 -28,1 -10,0 -20,0 -28,-1 z m 7,-7 c -3,0 -5,0 -7,0 -7,1 -10,2 -11,3 L 654,51 Z m 50,-23 -12,4 -6,-15 18,-17 z m -58,-28 18,17 -5,14 -13,-3 z m -24,21 c 0,0 0,0 0,0 0,0 0,0 0,0 l 13,34 c 0,0 0,0 0,0 0,1 0,3 12,4 8,1 18,1 28,1 11,0 21,0 28,-1 12,-1 12,-3 12,-4 0,0 0,0 0,0 l 13,-34 c 0,0 0,0 0,0 0,0 0,0 0,0 0,-1 0,-1 0,0 h -1 l -22,7 V 27 c 0,-1 0,-1 0,-1 -1,0 -1,0 -1,0 L 716,44 706,18 c 0,0 0,0 0,0 0,0 0,0 0,0 0,0 0,0 0,0 0,0 0,0 0,0 -1,0 -1,0 -1,0 0,0 0,0 0,0 0,0 0,0 0,0 0,0 0,0 0,0 0,0 0,0 0,0 0,0 0,0 0,0 0,0 0,0 0,0 0,0 0,0 0,0 0,0 0,0 0,0 0,0 0,0 0,0 L 695,44 676,26 c 0,0 0,0 0,0 0,0 -1,0 -1,1 v 28 l -22,-6 c 0,-1 -1,-1 -1,-1 0,0 0,0 0,0 0,1 0,1 0,1 0,0 0,0 0,0 0,0 0,0 0,0 0,0 0,0 0,0 0,0 0,0 0,0 0,0 0,0 0,0 0,0 0,0 0,0 0,0 0,0 0,0 0,0 0,0 0,0 z"
   id="path11" />
  </g>
</svg>
