<?xml version="1.0" encoding="UTF-8"?>
<!DOCTYPE svg PUBLIC "-//W3C//DTD SVG 1.1//EN" "http://www.w3.org/Graphics/SVG/1.1/DTD/svg11.dtd">
<!-- Creator: CorelDRAW X7 -->
<svg xmlns="http://www.w3.org/2000/svg" xml:space="preserve" width="9.4826mm" height="1.1852mm" version="1.1" style="shape-rendering:geometricPrecision; text-rendering:geometricPrecision; image-rendering:optimizeQuality; fill-rule:evenodd; clip-rule:evenodd"
viewBox="0 0 948 119"
 xmlns:xlink="http://www.w3.org/1999/xlink">
 <defs>
  <style type="text/css">
   <![CDATA[
    .str0 {stroke:black;stroke-width:4.58;stroke-linecap:round;stroke-linejoin:round}
    .fil1 {fill:none}
    .fil0 {fill:black}
   ]]>
  </style>
 </defs>
 <g id="Capa_x0020_1">
  <metadata id="CorelCorpID_0Corel-Layer"/>
  <path class="fil0" d="M669 2c0,0 1,0 1,0 0,1 1,1 1,2l10 109c0,1 0,2 0,2 -1,1 -1,1 -2,1l-5 0c-2,0 -3,-1 -4,-2 -1,0 -2,-2 -2,-3l-1 -15 -8 0 -1 15c0,1 0,3 -2,3 -1,1 -2,2 -4,2l-4 0c-1,0 -2,0 -2,-1 -1,0 -1,-1 -1,-2l11 -109c0,-1 0,-1 0,-2 1,0 1,0 2,0l11 0zm-9 83l7 0 -4 -55 -3 55z"/>
  <path class="fil0" d="M621 2c0,0 1,0 1,0 0,1 1,1 1,2l0 3c0,2 -1,3 -2,4 -1,1 -2,2 -3,2l-12 0 0 41 13 0c0,0 1,0 1,1 0,0 1,0 1,1l0 3c0,2 -1,3 -2,4 -1,1 -2,2 -3,2l-10 0 0 45c0,2 -1,3 -2,4 -1,1 -2,2 -4,2l-5 0c-1,0 -1,0 -2,-1 0,0 0,-1 0,-1l0 -110c0,-1 0,-1 0,-2 1,0 1,0 2,0l26 0z"/>
  <path class="fil0" d="M566 2c0,0 1,0 1,0 1,1 1,1 1,2l0 3c0,2 -1,3 -2,4 -1,1 -2,2 -3,2l-12 0 0 41 13 0c0,0 1,0 1,1 1,0 1,0 1,1l0 3c0,2 -1,3 -2,4 0,1 -2,2 -3,2l-10 0 0 40 12 0c1,0 2,1 3,2 1,1 2,2 2,4l0 3c0,1 0,1 -1,1 0,1 -1,1 -1,1l-26 0c-1,0 -1,0 -2,-1 0,0 0,-1 0,-1l0 -110c0,-1 0,-1 0,-2 1,0 1,0 2,0l26 0z"/>
  <path class="fil0" d="M503 42c-2,0 -3,-1 -4,-2 -1,-1 -2,-2 -2,-4l0 -19c0,-2 0,-3 -1,-4 -1,-1 -3,-2 -4,-2 -2,0 -4,1 -5,2 -1,1 -1,2 -1,4 0,5 0,10 1,13 1,4 2,8 3,11 1,2 2,5 4,7 1,3 3,5 4,7 2,3 3,5 4,8 2,2 3,5 4,9 2,3 2,7 3,12 1,5 1,10 1,17 0,2 0,5 -1,7 -1,2 -2,3 -4,5 -2,1 -4,3 -6,3 -2,1 -5,1 -7,1 -6,0 -11,-1 -14,-4 -3,-3 -5,-7 -5,-12l0 -24c0,-1 0,-1 1,-1 0,-1 0,-1 1,-1l5 0c2,0 4,0 5,2 1,1 1,2 1,4l0 20c0,2 0,3 1,4 1,1 3,2 5,2 2,0 3,-1 4,-2 1,-1 1,-2 1,-4 0,-6 0,-12 -1,-16 0,-4 -1,-8 -3,-11 -1,-4 -2,-6 -3,-9 -2,-2 -3,-4 -5,-6 -1,-3 -3,-5 -4,-7 -2,-2 -3,-5 -4,-8 -1,-4 -2,-7 -3,-12 -1,-4 -1,-9 -1,-15 0,-3 0,-5 1,-7 1,-2 2,-4 4,-5 2,-2 4,-3 6,-4 2,0 5,-1 8,-1 5,0 10,2 13,5 4,3 5,7 5,12l0 23c0,0 0,1 0,1 -1,1 -1,1 -2,1l-5 0z"/>
  <path class="fil0" d="M408 17c0,-5 2,-9 5,-12 3,-3 8,-5 14,-5 2,0 5,1 7,1 3,1 5,2 6,4 2,1 3,3 4,5 1,2 1,4 1,7l0 84c0,5 -1,9 -5,12 -3,3 -7,4 -13,4 -3,0 -6,0 -8,-1 -2,0 -4,-2 -6,-3 -1,-2 -3,-3 -4,-5 0,-2 -1,-5 -1,-7l0 -84zm24 0c0,-2 0,-3 -1,-4 -1,-1 -2,-2 -4,-2 -2,0 -4,1 -5,2 0,1 -1,2 -1,4l0 84c0,2 1,3 1,4 1,1 3,2 5,2 2,0 3,-1 4,-2 1,-1 1,-2 1,-4l0 -84z"/>
  <path class="fil0" d="M380 101c0,2 0,5 -1,7 -1,2 -2,3 -4,5 -1,1 -3,3 -6,3 -2,1 -4,1 -7,1 -6,0 -11,-1 -14,-4 -3,-3 -5,-7 -5,-12l0 -36c0,0 0,-1 1,-1 0,0 0,-1 1,-1l6 0c2,0 3,1 4,2 1,1 1,3 1,4l0 32c0,2 1,3 2,4 0,1 2,2 4,2 2,0 3,-1 4,-2 1,-1 1,-2 1,-4l0 -94c0,-2 1,-3 2,-4 1,-1 2,-1 4,-1l5 0c1,0 2,0 2,0 0,1 0,1 0,2l0 97z"/>
  <path class="fil0" d="M272 1c0,0 1,0 1,1 0,0 0,1 1,1l10 111c0,1 0,1 0,2 -1,0 -1,1 -2,1l-5 0c-2,0 -3,-1 -4,-2 -1,-1 -2,-2 -2,-3l-1 -16 -8 0 -1 16c0,1 -1,2 -2,3 -1,1 -2,2 -4,2l-5 0c-1,0 -1,-1 -2,-1 0,-1 0,-1 0,-2l11 -111c0,0 0,-1 0,-1 0,-1 1,-1 2,-1l11 0zm-9 84l6 0 -3 -56 -3 56z"/>
  <path class="fil0" d="M218 1c1,0 1,0 2,1 0,0 0,1 0,1l0 112c0,0 0,1 0,1 -1,0 -1,1 -2,1l-5 0c-2,0 -3,-1 -4,-2 -1,0 -2,-2 -2,-3 0,-1 0,-2 -1,-5 0,-2 -1,-5 -2,-8 0,-3 -1,-7 -2,-11 -1,-4 -2,-8 -3,-12 -1,-4 -2,-8 -2,-12 -1,-4 -2,-8 -2,-11l1 58c0,2 -1,3 -2,4 -1,1 -2,2 -4,2l-6 0c0,0 -1,-1 -1,-1 0,0 -1,-1 -1,-1l0 -112c0,0 1,-1 1,-1 0,-1 1,-1 1,-1l6 0c2,0 3,1 4,1 1,1 1,3 2,4 0,1 0,3 0,6 1,2 2,5 2,9 1,4 2,8 3,12 0,4 1,9 2,13 1,4 2,8 3,12 1,4 1,7 2,10l-1 -62c0,-1 0,-3 2,-3 1,-1 2,-2 4,-2l5 0z"/>
  <path class="fil0" d="M115 16c0,-5 1,-9 5,-12 3,-3 7,-4 13,-4 3,0 6,0 8,1 2,1 4,2 6,3 2,2 3,3 4,5 1,2 1,5 1,7l0 85c0,6 -1,10 -5,13 -3,3 -8,4 -14,4 -2,0 -5,0 -7,-1 -3,-1 -5,-2 -6,-3 -2,-2 -3,-4 -4,-6 -1,-2 -1,-4 -1,-7l0 -85zm24 0c0,-1 0,-3 -1,-4 -1,-1 -3,-1 -5,-1 -1,0 -3,0 -4,1 -1,1 -1,3 -1,4l0 85c0,2 0,3 1,5 1,1 2,1 4,1 2,0 4,0 5,-1 1,-2 1,-3 1,-5l0 -85z"/>
  <path class="fil0" d="M82 1c1,0 2,0 2,1 0,0 0,1 0,1l0 112c0,0 0,1 0,1 0,0 -1,1 -2,1l-5 0c-2,0 -3,-1 -4,-2 -1,0 -1,-2 -2,-3 0,-1 0,-2 0,-5 -1,-2 -1,-5 -2,-8 -1,-3 -2,-7 -3,-11 -1,-4 -2,-8 -2,-12 -1,-4 -2,-8 -3,-12 -1,-4 -2,-8 -2,-11l1 58c0,2 0,3 -1,4 -1,1 -3,2 -5,2l-5 0c-1,0 -1,-1 -2,-1 0,0 0,-1 0,-1l0 -112c0,0 0,-1 0,-1 1,-1 1,-1 2,-1l5 0c2,0 3,1 4,1 1,1 2,3 2,4 0,1 0,3 1,6 0,2 1,5 2,9 0,4 1,8 2,12 1,4 2,9 3,13 0,4 1,8 2,12 1,4 2,7 2,10l-1 -62c0,-1 1,-3 2,-3 1,-1 2,-2 4,-2l5 0z"/>
  <path class="fil1 str0" d="M760 106l-22 -54 49 46m21 0l-11 -29 -59 -18m59 18l25 -67 0 94m-16 -51l-31 -30 0 46m46 37c34,0 62,3 62,8 0,4 -28,8 -62,8 -35,0 -63,-4 -63,-8 0,-5 28,-8 63,-8zm63 8l22 -54 -49 46m-21 0l10 -29 60 -18m-68 -6l30 -30 0 46m-21 8l-25 -67 0 94"/>
 </g>
</svg>
