<?xml version="1.0" encoding="UTF-8"?>
<!DOCTYPE svg PUBLIC "-//W3C//DTD SVG 1.1//EN" "http://www.w3.org/Graphics/SVG/1.1/DTD/svg11.dtd">
<!-- Creator: CorelDRAW X7 -->
<svg xmlns="http://www.w3.org/2000/svg" xml:space="preserve" width="9.4826mm" height="1.1852mm" version="1.1" style="shape-rendering:geometricPrecision; text-rendering:geometricPrecision; image-rendering:optimizeQuality; fill-rule:evenodd; clip-rule:evenodd"
viewBox="0 0 948 119"
 xmlns:xlink="http://www.w3.org/1999/xlink">
 <defs>
  <style type="text/css">
   <![CDATA[
    .fil0 {fill:black}
   ]]>
  </style>
 </defs>
 <g id="Capa_x0020_1">
  <metadata id="CorelCorpID_0Corel-Layer"/>
  <g id="_868590944">
   <path class="fil0" d="M205 38c0,0 0,0 1,0 0,1 0,1 0,1l0 41c0,0 0,1 0,1 -1,0 -1,0 -1,0l-2 0c-1,0 -1,0 -1,0 -1,-1 -1,-1 -1,-2 0,0 0,-1 0,-1 -1,-1 -1,-2 -1,-4 0,-1 -1,-2 -1,-4 0,-1 -1,-3 -1,-4 0,-2 -1,-3 -1,-5 0,-1 0,-2 -1,-4l1 22c0,0 0,1 -1,1 0,1 -1,1 -1,1l-2 0c-1,0 -1,0 -1,0 0,0 0,-1 0,-1l0 -41c0,0 0,0 0,-1 0,0 0,0 1,0l2 0c0,0 1,0 1,1 0,0 1,0 1,1 0,0 0,1 0,2 0,1 0,2 1,4 0,1 0,2 1,4 0,2 0,3 1,5 0,1 0,3 0,4 1,2 1,3 1,4l0 -23c0,0 0,-1 0,-1 1,-1 1,-1 2,-1l2 0zm19 6c0,-2 0,-4 2,-5 1,-1 3,-1 5,-1 1,0 2,0 3,0 1,0 1,1 2,1 1,1 1,2 1,2 1,1 1,2 1,3l0 31c0,2 -1,4 -2,5 -1,1 -3,2 -5,2 -1,0 -2,-1 -3,-1 -1,0 -2,-1 -2,-1 -1,-1 -1,-1 -2,-2 0,-1 0,-2 0,-3l0 -31zm9 0c0,-1 0,-1 -1,-2 0,0 0,0 -1,0 -1,0 -1,0 -2,0 0,1 0,1 0,2l0 31c0,1 0,2 0,2 1,0 1,1 2,1 1,0 1,-1 1,-1 1,0 1,-1 1,-2l0 -31zm36 -6c0,0 1,0 1,0 0,1 0,1 0,1l0 41c0,0 0,1 0,1 0,0 -1,0 -1,0l-2 0c-1,0 -1,0 -1,0 -1,-1 -1,-1 -1,-2 0,0 0,-1 0,-1 0,-1 -1,-2 -1,-4 0,-1 -1,-2 -1,-4 0,-1 -1,-3 -1,-4 0,-2 -1,-3 -1,-5 0,-1 0,-2 -1,-4l1 22c0,0 0,1 -1,1 0,1 -1,1 -1,1l-2 0c-1,0 -1,0 -1,0 0,0 0,-1 0,-1l0 -41c0,0 0,0 0,-1 0,0 0,0 1,0l2 0c0,0 1,0 1,1 1,0 1,0 1,1 0,0 0,1 0,2 0,1 0,2 1,4 0,1 0,2 1,4 0,2 0,3 1,5 0,1 0,3 1,4 0,2 0,3 0,4l0 -23c0,0 0,-1 1,-1 0,-1 0,-1 1,-1l2 0zm27 0c0,0 0,0 0,0 0,1 1,1 1,1l4 41c0,0 -1,1 -1,1 0,0 0,0 0,0l-2 0c-1,0 -1,0 -2,-1 0,0 0,0 0,-1l-1 -6 -3 0 0 6c0,1 0,1 -1,1 0,1 -1,1 -1,1l-2 0c0,0 -1,0 -1,0 0,0 0,-1 0,-1l4 -41c0,0 0,0 0,-1 0,0 1,0 1,0l4 0zm-3 31l2 0 -1 -20 -1 20z"/>
   <path class="fil0" d="M367 93c0,2 0,4 -1,6 0,1 -1,3 -3,4 -1,1 -3,2 -5,3 -1,0 -3,1 -6,1 -4,0 -8,-2 -11,-4 -2,-2 -3,-6 -3,-10l0 -28c0,-1 0,-1 0,-1 0,-1 1,-1 1,-1l5 0c1,0 2,1 3,2 1,0 1,2 1,3l0 25c0,2 0,3 1,4 1,0 2,1 3,1 2,0 3,-1 4,-1 1,-1 1,-2 1,-4l0 -75c0,-1 0,-2 1,-3 1,-1 2,-1 3,-1l5 0c0,0 1,0 1,0 0,1 0,1 0,2l0 77zm23 -67c0,-4 1,-7 3,-10 3,-2 7,-3 11,-3 3,0 5,0 7,1 1,0 3,1 4,2 2,1 3,3 3,4 1,2 1,4 1,6l0 67c0,4 -1,8 -4,10 -2,2 -6,4 -11,4 -2,0 -4,-1 -6,-1 -2,-1 -3,-2 -4,-3 -2,-1 -3,-3 -3,-4 -1,-2 -1,-4 -1,-6l0 -67zm19 0c0,-1 0,-3 -1,-3 -1,-1 -2,-2 -4,-2 -1,0 -2,1 -3,2 -1,0 -1,2 -1,3l0 67c0,2 0,3 1,4 1,0 2,1 3,1 2,0 3,-1 4,-1 1,-1 1,-2 1,-4l0 -67zm56 20c-1,0 -2,0 -3,-1 -1,-1 -1,-2 -1,-4l0 -15c0,-1 0,-3 -1,-3 -1,-1 -2,-2 -4,-2 -1,0 -2,1 -3,2 -1,0 -1,2 -1,3 0,4 0,8 1,11 0,3 1,6 2,8 1,2 2,4 3,6 1,2 2,4 4,6 1,2 2,4 3,6 1,2 2,4 3,7 1,3 2,6 3,10 0,4 0,8 0,13 0,2 0,4 -1,6 0,1 -1,3 -3,4 -1,1 -3,2 -4,3 -2,0 -4,1 -7,1 -4,0 -8,-2 -10,-4 -3,-2 -4,-6 -4,-10l0 -19c0,0 0,-1 0,-1 0,0 1,-1 1,-1l4 0c2,0 3,1 4,2 1,1 1,2 1,3l0 16c0,2 0,3 1,4 1,0 2,1 3,1 2,0 3,-1 4,-1 1,-1 1,-2 1,-4 0,-5 0,-9 -1,-12 0,-4 -1,-7 -2,-10 -1,-2 -2,-4 -3,-6 -1,-2 -3,-4 -4,-6 -1,-1 -2,-3 -3,-5 -1,-2 -2,-4 -3,-7 -1,-2 -2,-5 -3,-9 0,-3 0,-7 0,-12 0,-2 0,-4 1,-6 0,-1 1,-3 3,-4 1,-1 3,-2 4,-2 2,-1 4,-1 6,-1 5,0 9,1 11,3 3,3 4,6 4,10l0 18c0,1 0,1 0,2 0,0 -1,0 -1,0l-5 0zm51 -32c0,0 1,0 1,0 0,1 0,1 0,1l0 3c0,1 0,3 -1,3 0,1 -1,2 -2,2l-10 0 0 33 10 0c1,0 1,0 1,0 1,0 1,1 1,1l0 3c0,1 0,2 -1,3 -1,1 -2,1 -3,1l-8 0 0 33 10 0c1,0 2,0 2,1 1,1 1,2 1,3l0 3c0,0 0,1 0,1 0,0 -1,0 -1,0l-21 0c0,0 -1,0 -1,0 0,0 0,-1 0,-1l0 -88c0,-1 0,-1 0,-2 0,0 1,0 1,0l21 0zm44 0c0,0 1,0 1,0 0,1 0,1 0,1l0 3c0,1 0,3 -1,3 0,1 -1,2 -2,2l-10 0 0 33 10 0c1,0 1,0 1,0 1,0 1,1 1,1l0 3c0,1 0,2 -1,3 -1,1 -2,1 -3,1l-8 0 0 37c0,1 0,2 -1,3 -1,1 -2,1 -4,1l-4 0c0,0 -1,0 -1,0 0,0 0,-1 0,-1l0 -88c0,-1 0,-1 0,-2 0,0 1,0 1,0l21 0zm38 0c1,0 1,0 1,0 1,1 1,1 1,1l8 88c1,1 0,1 0,2 0,0 -1,0 -2,0l-3 0c-2,0 -3,0 -4,-1 0,-1 -1,-1 -1,-3l-1 -12 -6 0 -1 12c0,2 -1,2 -1,3 -1,1 -2,1 -4,1l-3 0c-1,0 -2,0 -2,0 0,-1 0,-1 0,-2l8 -88c0,0 0,0 1,-1 0,0 0,0 1,0l8 0zm-7 66l6 0 -3 -44 -3 44z"/>
   <path class="fil0" d="M689 60c0,0 0,0 0,0l6 18c-3,0 -7,0 -10,1l-31 -29 35 10zm16 18c-3,0 -6,0 -8,0l-7 -18 15 -39 0 57zm16 -18l-7 18c-3,0 -6,0 -8,0l0 -57 15 39zm4 19c-3,-1 -6,-1 -10,-1l7 -17 34 -11 -31 29zm20 3c-1,-1 -4,-2 -12,-3 -2,0 -4,0 -6,0l30 -28 -12 31zm-68 4c-11,-1 -11,-3 -11,-3 0,0 0,-1 11,-3 8,-1 18,-1 28,-1 11,0 21,0 28,1 11,2 11,3 11,3 0,0 0,2 -11,3 -7,1 -17,1 -28,1 -10,0 -20,0 -28,-1zm7 -7c-3,0 -5,0 -7,0 -7,1 -10,2 -11,3l-12 -31 30 28zm50 -23l-12 4 -6 -15 18 -17 0 28zm-58 -28l18 17 -5 14 -13 -3 0 -28zm-24 21c0,0 0,0 0,0 0,0 0,0 0,0l13 34c0,0 0,0 0,0 0,1 0,3 12,4 8,1 18,1 28,1 11,0 21,0 28,-1 12,-1 12,-3 12,-4 0,0 0,0 0,0l13 -34c0,0 0,0 0,0 0,0 0,0 0,0 0,-1 0,-1 0,0l-1 0 -22 7 0 -29c0,-1 0,-1 0,-1 -1,0 -1,0 -1,0l-18 18 -10 -26c0,0 0,0 0,0 0,0 0,0 0,0 0,0 0,0 0,0 0,0 0,0 0,0 -1,0 -1,0 -1,0 0,0 0,0 0,0 0,0 0,0 0,0 0,0 0,0 0,0 0,0 0,0 0,0 0,0 0,0 0,0 0,0 0,0 0,0 0,0 0,0 0,0 0,0 0,0 0,0 0,0 0,0 0,0l-10 26 -19 -18c0,0 0,0 0,0 0,0 -1,0 -1,1l0 28 -22 -6c0,-1 -1,-1 -1,-1 0,0 0,0 0,0 0,1 0,1 0,1 0,0 0,0 0,0 0,0 0,0 0,0 0,0 0,0 0,0 0,0 0,0 0,0 0,0 0,0 0,0 0,0 0,0 0,0 0,0 0,0 0,0 0,0 0,0 0,0z"/>
  </g>
 </g>
</svg>
