<?xml version="1.0" standalone="no"?>
<!DOCTYPE svg PUBLIC "-//W3C//DTD SVG 20010904//EN"
 "http://www.w3.org/TR/2001/REC-SVG-20010904/DTD/svg10.dtd">
<svg version="1.0" xmlns="http://www.w3.org/2000/svg"
 width="1081.000000pt" height="1081.000000pt" viewBox="0 0 1081.000000 1081.000000"
 preserveAspectRatio="xMidYMid meet">
<metadata>
Created by potrace 1.16, written by Peter Selinger 2001-2019
</metadata>
<g transform="translate(0.000000,1081.000000) scale(0.100000,-0.100000)"
fill="#000000" stroke="none">
<path d="M10 5402 l0 -5402 5398 2 5397 3 3 5397 2 5398 -5400 2 -5400 3 0
-5403z m7259 3093 c26 -66 76 -194 111 -285 137 -359 282 -732 287 -740 2 -2
183 175 402 394 288 288 403 397 415 393 14 -6 16 -71 18 -641 l3 -634 415
124 c546 163 553 165 567 176 16 13 33 2 33 -21 0 -9 -68 -192 -151 -407 -374
-968 -405 -1049 -413 -1087 -8 -34 -50 -61 -136 -87 -306 -90 -975 -137 -1795
-127 -568 7 -926 31 -1228 82 -251 42 -337 79 -348 150 -3 22 -36 117 -73 210
-37 94 -80 205 -96 248 -17 42 -111 286 -210 542 -99 255 -180 473 -180 485 0
11 4 20 9 20 5 0 67 -18 137 -39 71 -22 291 -88 489 -147 198 -59 366 -109
373 -111 9 -4 12 125 12 626 0 570 2 632 16 638 12 4 126 -104 415 -393 219
-219 400 -396 402 -394 2 3 24 59 49 125 68 177 304 786 345 890 19 50 39 100
44 113 17 45 39 19 88 -103z m-4279 -1776 c68 -14 114 -55 129 -113 15 -61 15
-886 0 -941 -24 -87 -117 -134 -224 -114 -55 10 -88 30 -119 73 -21 27 -21 38
-21 510 l0 482 25 37 c28 40 85 70 147 76 7 0 35 -4 63 -10z m-974 -54 c7 -22
33 -148 58 -280 25 -132 50 -253 55 -270 7 -20 10 71 10 268 -1 218 3 302 11
312 8 9 31 15 60 15 40 0 49 -3 53 -22 8 -30 9 -1056 1 -1096 -6 -31 -8 -32
-54 -32 -57 0 -67 10 -80 81 -6 30 -26 122 -45 204 -19 83 -43 191 -54 240
l-19 90 6 -285 c6 -337 7 -333 -71 -328 l-52 3 -3 573 -2 573 57 -3 58 -3 11
-40z m1704 35 c11 -6 21 -26 25 -52 11 -74 107 -553 111 -557 3 -3 4 129 4
293 -1 215 2 302 11 312 7 8 30 14 60 14 42 0 49 -3 54 -22 3 -13 4 -270 3
-573 l-3 -550 -51 -3 c-63 -4 -69 3 -88 99 -8 41 -35 164 -60 274 -24 110 -46
209 -48 220 -2 11 -2 -111 0 -270 5 -335 7 -328 -77 -323 l-46 3 -3 560 c-1
308 0 566 3 573 5 14 78 16 105 2z m984 -27 c3 -21 12 -114 21 -208 8 -93 20
-210 25 -260 30 -272 60 -626 55 -635 -3 -5 -25 -10 -49 -10 -61 0 -73 18 -82
123 l-7 87 -37 0 c-37 0 -37 -1 -44 -46 -3 -26 -6 -64 -6 -85 0 -54 -27 -79
-85 -79 -44 0 -45 1 -45 33 0 17 11 147 25 287 14 140 32 325 40 410 29 310
36 375 40 398 5 20 11 22 74 22 l69 0 6 -37z m-1393 -1407 c114 -25 206 -87
262 -178 47 -76 47 -79 47 -1158 0 -867 -2 -1024 -15 -1073 -39 -150 -159
-247 -331 -267 -155 -17 -296 18 -383 96 -61 55 -89 98 -107 167 -21 80 -21
2077 1 2160 25 96 94 180 182 222 88 42 231 55 344 31z m1551 -15 c113 -39
184 -108 224 -216 16 -44 19 -90 22 -362 3 -304 3 -312 -17 -332 -18 -18 -33
-21 -93 -20 -94 0 -137 15 -165 58 -22 33 -23 40 -23 293 0 297 -4 318 -67
344 -50 21 -117 14 -149 -17 -13 -12 -29 -41 -35 -62 -21 -77 13 -379 57 -515
38 -114 65 -169 179 -352 233 -373 288 -549 310 -980 8 -150 -4 -234 -43 -310
-129 -247 -597 -265 -746 -30 -53 82 -56 109 -56 460 0 240 3 329 12 338 19
19 193 16 224 -4 51 -34 54 -52 55 -336 0 -177 4 -274 12 -297 25 -72 122
-103 187 -59 59 40 62 54 56 233 -8 249 -47 436 -125 609 -16 35 -83 147 -150
249 -142 216 -183 301 -221 452 -38 149 -53 292 -48 465 3 141 4 148 36 212
49 100 136 167 254 193 84 19 234 13 310 -14z m-2744 -23 c9 -9 12 -282 12
-1168 0 -1026 -2 -1162 -16 -1210 -49 -166 -196 -262 -403 -263 -187 -1 -326
68 -391 193 -36 69 -40 117 -40 570 0 261 4 451 10 460 13 20 151 26 205 8 32
-10 45 -22 63 -58 22 -44 22 -49 22 -442 0 -279 3 -405 12 -422 34 -77 175
-85 218 -13 19 31 20 59 20 1143 0 800 3 1120 11 1143 19 54 59 71 169 71 61
0 100 -4 108 -12z m4303 -10 c17 -32 6 -144 -18 -177 -31 -41 -74 -50 -223
-50 l-135 1 -3 -476 -2 -476 158 0 c110 0 162 -4 170 -12 7 -7 12 -41 12 -84
0 -57 -4 -78 -23 -105 -28 -42 -46 -47 -194 -48 l-123 -1 0 -460 0 -460 146 0
c208 0 231 -14 241 -144 9 -112 30 -106 -344 -106 -289 0 -317 1 -329 18 -11
14 -13 247 -14 1290 0 859 3 1280 10 1293 10 18 25 19 335 19 322 0 324 0 336
-22z m1257 -60 c3 -85 -11 -128 -51 -150 -13 -7 -81 -14 -174 -16 l-153 -4 0
-474 0 -474 158 0 c110 0 162 -4 170 -12 18 -18 15 -134 -4 -174 -26 -55 -55
-64 -199 -64 l-125 0 0 -530 c0 -459 -2 -535 -16 -569 -22 -56 -59 -71 -173
-71 -79 0 -92 2 -101 19 -14 27 -14 2555 0 2582 10 19 23 19 338 17 l327 -3 3
-77z m1101 60 c5 -13 17 -106 26 -208 9 -102 23 -248 30 -325 8 -77 27 -284
44 -460 17 -176 35 -363 41 -415 6 -52 21 -216 35 -365 14 -148 30 -308 35
-355 5 -47 17 -163 26 -258 20 -215 22 -212 -98 -212 -84 0 -131 14 -162 48
-20 23 -30 90 -41 295 l-7 127 -92 0 -93 0 -11 -191 c-12 -208 -16 -224 -75
-259 -25 -16 -50 -20 -118 -20 -118 0 -122 5 -109 131 10 100 82 847 155 1604
76 794 83 856 95 870 10 12 43 15 161 15 146 0 150 -1 158 -22z"/>
<path d="M7132 8353 c-22 -60 -75 -196 -117 -303 -42 -107 -117 -301 -167
-430 -49 -129 -119 -307 -154 -396 -98 -248 -164 -427 -164 -444 0 -13 56
-163 185 -495 23 -60 58 -149 76 -197 l34 -88 178 0 177 0 0 1230 c0 677 -2
1230 -4 1230 -2 0 -22 -48 -44 -107z"/>
<path d="M7230 7231 l0 -1231 177 2 177 3 44 110 c117 297 252 653 252 667 0
12 -75 211 -213 563 -19 50 -72 187 -118 305 -45 118 -99 258 -119 310 -20 52
-72 185 -115 295 -42 110 -79 202 -81 204 -2 2 -4 -550 -4 -1228z"/>
<path d="M5952 7578 l3 -603 110 -32 c343 -103 419 -123 426 -116 4 4 23 49
42 98 99 254 187 487 187 493 0 10 -753 762 -763 762 -4 0 -6 -271 -5 -602z"/>
<path d="M8067 7802 c-207 -207 -377 -381 -377 -386 0 -9 101 -275 182 -479
40 -99 54 -126 67 -123 14 4 179 53 441 130 l75 23 3 606 c1 334 -1 607 -5
607 -5 0 -178 -170 -386 -378z"/>
<path d="M5010 7201 c0 -5 4 -11 9 -13 5 -1 98 -86 207 -188 109 -102 271
-252 359 -334 88 -82 189 -177 225 -210 36 -34 128 -120 205 -191 77 -71 167
-155 200 -186 116 -110 87 -102 317 -93 111 4 212 10 224 13 24 7 48 -61 -215
616 l-62 160 -217 64 c-119 36 -302 90 -407 122 -182 55 -480 144 -650 194
-44 13 -102 31 -130 39 -59 18 -65 19 -65 7z"/>
<path d="M9359 7195 c-3 -2 -81 -27 -174 -55 -94 -28 -415 -124 -715 -213
l-544 -163 -147 -380 -148 -379 30 -6 c16 -4 118 -10 227 -14 l199 -7 104 98
c57 53 129 120 159 148 952 883 1050 976 1029 976 -9 0 -18 -2 -20 -5z"/>
<path d="M9362 7108 c-42 -40 -106 -100 -142 -134 -78 -73 -426 -397 -705
-656 -113 -104 -242 -224 -287 -267 l-83 -79 70 -7 c363 -36 643 -87 693 -127
7 -6 14 -9 17 -7 2 3 43 106 91 229 47 124 103 268 124 320 20 52 96 250 169
440 73 190 135 348 138 353 13 22 -16 -1 -85 -65z"/>
<path d="M4974 7154 c7 -18 80 -207 370 -957 74 -192 136 -351 139 -354 3 -2
41 7 84 21 108 34 267 62 453 81 85 9 175 19 200 23 l44 7 -135 125 c-74 69
-360 334 -635 591 -275 256 -506 469 -513 474 -11 6 -13 4 -7 -11z"/>
<path d="M6770 5953 c-641 -16 -1270 -104 -1270 -179 0 -36 191 -85 455 -119
545 -68 1455 -83 2135 -35 298 22 638 69 725 102 65 24 95 41 95 53 0 22 -88
56 -209 80 -397 81 -1124 118 -1931 98z"/>
<path d="M2900 6600 c-19 -19 -20 -33 -20 -465 0 -432 1 -446 20 -465 26 -26
55 -25 80 0 20 20 21 30 18 471 -3 433 -4 451 -22 465 -27 19 -52 18 -76 -6z"/>
<path d="M4610 6135 c-7 -135 -10 -248 -6 -252 12 -12 48 -10 53 2 5 14 -24
485 -30 491 -2 2 -10 -106 -17 -241z"/>
<path d="M3134 5020 c-12 -4 -31 -21 -43 -36 l-21 -27 0 -1019 c0 -1134 -4
-1065 67 -1095 70 -29 149 0 174 65 5 13 9 453 9 1028 0 1103 3 1046 -60 1079
-31 16 -92 19 -126 5z"/>
<path d="M8607 4450 c-45 -749 -57 -957 -63 -1027 l-6 -83 76 0 c66 0 76 2 76
18 0 32 -70 1187 -73 1202 -2 8 -6 -41 -10 -110z"/>
</g>
</svg>
