<?xml version="1.0" encoding="UTF-8" standalone="no"?>
<svg
   xmlns:dc="http://purl.org/dc/elements/1.1/"
   xmlns:cc="http://creativecommons.org/ns#"
   xmlns:rdf="http://www.w3.org/1999/02/22-rdf-syntax-ns#"
   xmlns:svg="http://www.w3.org/2000/svg"
   xmlns="http://www.w3.org/2000/svg"
   xmlns:sodipodi="http://sodipodi.sourceforge.net/DTD/sodipodi-0.dtd"
   xmlns:inkscape="http://www.inkscape.org/namespaces/inkscape"
   width="126.30282mm"
   height="126.30282mm"
   viewBox="0 0 126.30282 126.30282"
   version="1.1"
   id="svg8"
   inkscape:version="1.0.1 (3bc2e813f5, 2020-09-07)"
   sodipodi:docname="insta.svg">
  <defs
     id="defs2" />
  <sodipodi:namedview
     id="base"
     pagecolor="#ffffff"
     bordercolor="#666666"
     borderopacity="1.0"
     inkscape:pageopacity="0.0"
     inkscape:pageshadow="2"
     inkscape:zoom="0.35"
     inkscape:cx="400"
     inkscape:cy="560"
     inkscape:document-units="mm"
     inkscape:current-layer="layer1"
     inkscape:document-rotation="0"
     showgrid="false"
     inkscape:window-width="1366"
     inkscape:window-height="745"
     inkscape:window-x="-8"
     inkscape:window-y="-8"
     inkscape:window-maximized="1" />
  <metadata
     id="metadata5">
    <rdf:RDF>
      <cc:Work
         rdf:about="">
        <dc:format>image/svg+xml</dc:format>
        <dc:type
           rdf:resource="http://purl.org/dc/dcmitype/StillImage" />
        <dc:title></dc:title>
      </cc:Work>
    </rdf:RDF>
  </metadata>
  <g
     inkscape:label="Capa 1"
     inkscape:groupmode="layer"
     id="layer1">
    <g
       id="g1505"
       transform="matrix(0.24534113,0,0,0.24538923,1.07065,0.30238176)">
      <g
         id="g1404">
	<g
   id="g1402">
		<g
   id="g1400">
			<path
   d="M 359.312,0 H 152.689 C 68.849,0 0.64,68.208 0.64,152.049 V 359.952 C 0.64,443.792 68.849,512 152.689,512 H 359.312 C 443.151,512 511.36,443.792 511.36,359.952 V 152.049 C 511.359,68.208 443.151,0 359.312,0 Z m 131.649,359.951 c 0,72.593 -59.057,131.65 -131.649,131.65 H 152.689 c -72.593,0 -131.65,-59.057 -131.65,-131.649 V 152.049 c 0,-72.593 59.057,-131.65 131.65,-131.65 h 206.623 c 72.592,0 131.649,59.057 131.649,131.65 z"
   id="path1396" />

			<path
   d="M 359.312,58.294 H 152.689 c -51.698,0 -93.756,42.057 -93.756,93.755 v 207.904 c 0,51.697 42.058,93.755 93.756,93.755 h 206.623 c 51.697,0 93.755,-42.058 93.755,-93.755 V 152.049 c 0,-51.697 -42.058,-93.755 -93.755,-93.755 z m 73.357,301.657 c 0,40.449 -32.908,73.357 -73.357,73.357 H 152.689 c -40.45,0 -73.358,-32.908 -73.358,-73.357 V 152.048 c 0,-40.449 32.908,-73.357 73.358,-73.357 v 10e-4 h 206.623 c 40.449,0 73.357,32.908 73.357,73.357 z"
   id="path1398" />

		</g>

	</g>

</g>
      <g
         id="g1414">
	<g
   id="g1412">
		<g
   id="g1410">
			<path
   d="m 256,124.178 c -72.686,0 -131.821,59.135 -131.821,131.822 0,72.687 59.134,131.821 131.821,131.821 72.687,0 131.821,-59.134 131.821,-131.821 0,-72.687 -59.135,-131.822 -131.821,-131.822 z m 0,243.244 c -61.438,0 -111.422,-49.984 -111.422,-111.422 0,-61.439 49.984,-111.423 111.422,-111.423 61.439,0 111.422,49.984 111.422,111.423 0,61.438 -49.984,111.422 -111.422,111.422 z"
   id="path1406" />

			<path
   d="m 256,181.041 c -41.332,0 -74.959,33.627 -74.959,74.959 0,41.332 33.627,74.959 74.959,74.959 41.333,0 74.959,-33.627 74.959,-74.959 0,-41.332 -33.627,-74.959 -74.959,-74.959 z m 0,129.52 c -30.085,0 -54.561,-24.476 -54.561,-54.561 0,-30.085 24.476,-54.561 54.561,-54.561 30.085,0 54.561,24.475 54.561,54.561 0,30.085 -24.476,54.561 -54.561,54.561 z"
   id="path1408" />

		</g>

	</g>

</g>
      <g
         id="g1420">
	<g
   id="g1418">
		<path
   d="m 380.485,99.843 c -17.464,0 -31.673,14.208 -31.673,31.673 0,17.465 14.208,31.672 31.673,31.672 17.463,0 31.672,-14.207 31.672,-31.672 0,-17.465 -14.209,-31.673 -31.672,-31.673 z m 0,42.946 c -6.216,0 -11.274,-5.057 -11.274,-11.273 0,-6.217 5.058,-11.274 11.274,-11.274 6.216,0 11.273,5.058 11.273,11.274 0.001,6.216 -5.056,11.273 -11.273,11.273 z"
   id="path1416" />

	</g>

</g>
      <g
         id="g1426">
	<g
   id="g1424">
		<path
   d="m 239.681,463.044 h -95.872 c -5.633,0 -10.199,4.566 -10.199,10.199 0,5.633 4.566,10.199 10.199,10.199 h 95.872 c 5.633,0 10.199,-4.566 10.199,-10.199 0,-5.633 -4.566,-10.199 -10.199,-10.199 z"
   id="path1422" />

	</g>

</g>
      <g
         id="g1432">
	<g
   id="g1430">
		<path
   d="m 278.438,463.044 h -6.12 c -5.632,0 -10.199,4.566 -10.199,10.199 0,5.633 4.567,10.199 10.199,10.199 h 6.12 c 5.633,0 10.199,-4.566 10.199,-10.199 0,-5.633 -4.567,-10.199 -10.199,-10.199 z"
   id="path1428" />

	</g>

</g>
      <g
         id="g1434">
</g>
      <g
         id="g1436">
</g>
      <g
         id="g1438">
</g>
      <g
         id="g1440">
</g>
      <g
         id="g1442">
</g>
      <g
         id="g1444">
</g>
      <g
         id="g1446">
</g>
      <g
         id="g1448">
</g>
      <g
         id="g1450">
</g>
      <g
         id="g1452">
</g>
      <g
         id="g1454">
</g>
      <g
         id="g1456">
</g>
      <g
         id="g1458">
</g>
      <g
         id="g1460">
</g>
      <g
         id="g1462">
</g>
    </g>
  </g>
</svg>
