<?xml version="1.0" encoding="UTF-8" standalone="no"?>
<svg
   xmlns:dc="http://purl.org/dc/elements/1.1/"
   xmlns:cc="http://creativecommons.org/ns#"
   xmlns:rdf="http://www.w3.org/1999/02/22-rdf-syntax-ns#"
   xmlns:svg="http://www.w3.org/2000/svg"
   xmlns="http://www.w3.org/2000/svg"
   xmlns:sodipodi="http://sodipodi.sourceforge.net/DTD/sodipodi-0.dtd"
   xmlns:inkscape="http://www.inkscape.org/namespaces/inkscape"
   width="126.30282mm"
   height="126.30282mm"
   viewBox="0 0 126.30282 126.30282"
   version="1.1"
   id="svg8"
   inkscape:version="1.0.1 (3bc2e813f5, 2020-09-07)"
   sodipodi:docname="whatsapp.svg">
  <defs
     id="defs2" />
  <sodipodi:namedview
     id="base"
     pagecolor="#ffffff"
     bordercolor="#666666"
     borderopacity="1.0"
     inkscape:pageopacity="0.0"
     inkscape:pageshadow="2"
     inkscape:zoom="0.35"
     inkscape:cx="395.82535"
     inkscape:cy="555.82535"
     inkscape:document-units="mm"
     inkscape:current-layer="layer1"
     inkscape:document-rotation="0"
     showgrid="false"
     fit-margin-top="0"
     fit-margin-left="0"
     fit-margin-right="0"
     fit-margin-bottom="0"
     inkscape:window-width="1366"
     inkscape:window-height="745"
     inkscape:window-x="-8"
     inkscape:window-y="-8"
     inkscape:window-maximized="1" />
  <metadata
     id="metadata5">
    <rdf:RDF>
      <cc:Work
         rdf:about="">
        <dc:format>image/svg+xml</dc:format>
        <dc:type
           rdf:resource="http://purl.org/dc/dcmitype/StillImage" />
        <dc:title></dc:title>
      </cc:Work>
    </rdf:RDF>
  </metadata>
  <g
     inkscape:label="Capa 1"
     inkscape:groupmode="layer"
     id="layer1"
     transform="translate(-1.1045417,-1.1045418)">
    <g
       id="g1409"
       transform="matrix(0.26458333,0,0,0.26458333,1.1045417,1.1045418)">
      <g
         id="g1351">
	<g
   id="g1349">
		<path
   d="m 19.89,452.503 c -2.486,4.973 0,9.945 2.486,12.431 4.973,2.486 9.945,2.486 14.918,2.486 l 74.588,-27.349 c 37.294,24.863 82.047,37.294 126.8,37.294 131.773,0 238.683,-106.91 238.683,-238.683 C 477.365,106.909 370.456,0 238.683,0 106.91,0 0,106.91 0,238.683 c 0,49.726 14.918,99.451 44.753,139.232 z m 4.973,-216.306 c 0,-119.342 96.965,-213.82 213.82,-213.82 116.855,0 213.82,96.965 213.82,213.82 0,116.855 -96.965,213.82 -213.82,213.82 -42.267,0 -84.534,-12.431 -119.342,-34.808 -2.486,-2.486 -4.973,-2.486 -7.459,-2.486 -2.486,0 -2.486,0 -4.973,0 L 49.724,435.1 69.614,377.916 c 2.486,-4.973 0,-7.459 -2.486,-12.431 C 39.781,328.189 24.863,283.436 24.863,236.197 Z"
   id="path1345" />

		<path
   d="m 285.923,382.888 c 12.431,2.486 22.377,4.973 34.808,4.973 29.835,0 52.212,-12.431 67.13,-34.808 7.459,-14.918 9.945,-27.349 7.459,-39.781 -4.973,-14.918 -17.404,-22.377 -19.89,-24.863 l -37.294,-19.89 c -4.973,-2.486 -9.945,-4.973 -14.918,-4.973 -24.863,0 -39.781,27.349 -39.781,27.349 0,0 -2.486,2.486 -7.459,2.486 -2.486,0 -2.486,0 -2.486,0 -37.294,-12.431 -64.643,-47.239 -77.075,-64.643 l -2.486,-2.486 c -9.945,-7.459 -12.431,-7.459 -2.486,-17.404 19.89,-17.404 14.918,-37.294 9.945,-44.753 l -24.863,-59.671 c -2.486,-4.973 -12.431,-12.431 -22.377,-12.431 -12.431,0 -27.349,7.459 -44.753,24.863 -42.267,42.267 -9.945,106.91 -9.945,106.91 47.239,124.314 181.498,156.635 186.471,159.122 z M 126.8,134.259 c 14.918,-17.404 24.863,-17.404 27.349,-17.404 l 27.349,59.671 c 0,2.486 2.486,7.459 -4.973,14.918 -24.863,22.377 -17.404,37.294 -4.973,52.212 l 2.486,2.486 c 12.431,17.404 44.753,59.671 89.506,72.102 0,0 4.973,0 9.945,0 12.431,0 22.377,-4.973 29.835,-14.918 2.486,-7.459 14.918,-19.89 24.863,-14.918 l 37.294,17.404 c 0,0 4.973,2.486 7.459,7.459 2.486,7.459 -2.486,14.918 -4.973,19.89 -12.431,22.377 -37.294,27.349 -72.102,19.89 -4.973,0 -126.8,-32.322 -171.554,-141.718 -2.483,4.974 -27.346,-44.752 2.489,-77.074 z"
   id="path1347" />

	</g>

</g>
      <g
         id="g1353">
</g>
      <g
         id="g1355">
</g>
      <g
         id="g1357">
</g>
      <g
         id="g1359">
</g>
      <g
         id="g1361">
</g>
      <g
         id="g1363">
</g>
      <g
         id="g1365">
</g>
      <g
         id="g1367">
</g>
      <g
         id="g1369">
</g>
      <g
         id="g1371">
</g>
      <g
         id="g1373">
</g>
      <g
         id="g1375">
</g>
      <g
         id="g1377">
</g>
      <g
         id="g1379">
</g>
      <g
         id="g1381">
</g>
    </g>
  </g>
</svg>
